<?xml version="1.0" encoding="iso-8859-1"?>
<!-- Generator: Adobe Illustrator 19.0.0, SVG Export Plug-In . SVG Version: 6.00 Build 0)  -->
<svg version="1.1" id="Capa_1" xmlns="http://www.w3.org/2000/svg" xmlns:xlink="http://www.w3.org/1999/xlink" x="0px" y="0px"
	 viewBox="0 0 512 512" style="enable-background:new 0 0 512 512;" xml:space="preserve">
<path style="fill:#FF80E4;" d="M512,512H0V0h512V512z"/>
<path style="fill:#FF5AD4;" d="M512,512H256V0h256V512z"/>
<path style="fill:#7F1363;" d="M482,482H30V30h452V482z"/>
<path style="fill:#661054;" d="M482,482H256V30h226V482z"/>
<path style="fill:#FF80E4;" d="M146.461,181.6l42.48,63.36l42.24-63.36h35.76l-60.72,86.4l58.8,84h-35.76l-40.32-60.96L148.382,352
	h-36l58.8-84l-60.721-86.4H146.461z"/>
<g>
	<path style="fill:#FF5AD4;" d="M325.741,354.4c-36.922,0-59.761-30.775-59.761-65.28c0-39.12,26.339-65.04,56.16-65.04
		c25.262,0,38.317,17.04,42.479,24.24V176.8h32.16v138.24c0,3.36,4.718,9.442,7.44,9.6V352c-5.603,1.118-10.163,1.68-13.681,1.68
		c-23.221,0-21.119-23.52-21.119-23.52C364.778,338.163,350.944,354.4,325.741,354.4z M334.141,327.04
		c20.179,0,29.358-18.079,30.479-21.12v-30c-1.282-3.518-12.801-24.48-32.399-24.48c-21.901,0-32.88,21.727-32.88,38.4
		C299.341,308.167,312.819,327.04,334.141,327.04z"/>
	<polygon style="fill:#FF5AD4;" points="256,181.6 256,197.169 266.941,181.6 	"/>
	<polygon style="fill:#FF5AD4;" points="256,352 265.021,352 256,339.112 	"/>
</g>
<g>
</g>
<g>
</g>
<g>
</g>
<g>
</g>
<g>
</g>
<g>
</g>
<g>
</g>
<g>
</g>
<g>
</g>
<g>
</g>
<g>
</g>
<g>
</g>
<g>
</g>
<g>
</g>
<g>
</g>
</svg>
